<svg width="370" height="64" viewBox="0 0 370 64" fill="none" xmlns="http://www.w3.org/2000/svg">
<path d="M59.5263 64C69.7662 63.7902 78 55.3717 78 45.0222C78 39.989 76.0121 35.1619 72.4735 31.6029L41.0527 0V19.6434C41.0527 22.9285 42.3502 26.0792 44.6599 28.4022L52.0204 35.8054L52.0405 35.8251L64.3822 48.2384C64.783 48.6414 64.783 49.295 64.3822 49.6981C63.9815 50.1013 63.3315 50.1013 62.9309 49.6981L58.6767 45.4194H19.3233L15.0692 49.6981C14.6684 50.1013 14.0186 50.1013 13.6178 49.6981C13.217 49.295 13.217 48.6414 13.6178 48.2384L25.9595 35.8251L25.9796 35.8054L33.3401 28.4022C35.6498 26.0792 36.9473 22.9285 36.9473 19.6434V0L5.52646 31.6029C1.98792 35.1619 0 39.989 0 45.0222C0 55.3717 8.23381 63.7902 18.4737 64H59.5263Z" fill="#4F39F6"/>
<path d="M90 46.9V17.1H99.72C102.867 17.1 105.6 17.74 107.92 19.02C110.267 20.2733 112.08 22.02 113.36 24.26C114.64 26.4733 115.28 29.0467 115.28 31.98C115.28 34.8867 114.64 37.4733 113.36 39.74C112.08 41.98 110.267 43.74 107.92 45.02C105.6 46.2733 102.867 46.9 99.72 46.9H90ZM95.44 42.1H99.84C101.867 42.1 103.613 41.6867 105.08 40.86C106.573 40.0067 107.733 38.8333 108.56 37.34C109.387 35.82 109.8 34.0333 109.8 31.98C109.8 29.9 109.387 28.1133 108.56 26.62C107.733 25.1267 106.573 23.9667 105.08 23.14C103.613 22.3133 101.867 21.9 99.84 21.9H95.44V42.1Z" fill="#4F39F6"/>
<path d="M129.489 47.38C127.249 47.38 125.289 46.8733 123.609 45.86C121.929 44.8467 120.623 43.4733 119.689 41.74C118.756 40.0067 118.289 38.0867 118.289 35.98C118.289 33.7933 118.756 31.86 119.689 30.18C120.649 28.4733 121.943 27.1267 123.569 26.14C125.223 25.1533 127.063 24.66 129.089 24.66C130.796 24.66 132.289 24.94 133.569 25.5C134.876 26.06 135.983 26.8333 136.889 27.82C137.796 28.8067 138.489 29.94 138.969 31.22C139.449 32.4733 139.689 33.8333 139.689 35.3C139.689 35.6733 139.663 36.06 139.609 36.46C139.583 36.86 139.516 37.2067 139.409 37.5H122.609V33.5H136.449L133.969 35.38C134.209 34.1533 134.143 33.06 133.769 32.1C133.423 31.14 132.836 30.38 132.009 29.82C131.209 29.26 130.236 28.98 129.089 28.98C127.996 28.98 127.023 29.26 126.169 29.82C125.316 30.3533 124.663 31.1533 124.209 32.22C123.783 33.26 123.623 34.5267 123.729 36.02C123.623 37.3533 123.796 38.54 124.249 39.58C124.729 40.5933 125.423 41.38 126.329 41.94C127.263 42.5 128.329 42.78 129.529 42.78C130.729 42.78 131.743 42.5267 132.569 42.02C133.423 41.5133 134.089 40.8333 134.569 39.98L138.809 42.06C138.383 43.1 137.716 44.02 136.809 44.82C135.903 45.62 134.823 46.2467 133.569 46.7C132.343 47.1533 130.983 47.38 129.489 47.38Z" fill="#4F39F6"/>
<path d="M149.831 46.9L141.271 25.14H146.991L153.191 42.26H151.071L157.311 25.14H163.031L154.471 46.9H149.831Z" fill="#4F39F6"/>
<path d="M180.487 47.38C178.354 47.38 176.381 46.9933 174.567 46.22C172.754 45.4467 171.167 44.3667 169.807 42.98C168.447 41.5933 167.381 39.9667 166.607 38.1C165.861 36.2333 165.487 34.1933 165.487 31.98C165.487 29.7667 165.847 27.7267 166.567 25.86C167.314 23.9667 168.354 22.34 169.687 20.98C171.047 19.5933 172.634 18.5267 174.447 17.78C176.261 17.0067 178.234 16.62 180.367 16.62C182.501 16.62 184.407 16.98 186.087 17.7C187.794 18.42 189.234 19.38 190.407 20.58C191.581 21.7533 192.421 23.0467 192.927 24.46L188.087 26.78C187.527 25.2333 186.581 23.98 185.247 23.02C183.914 22.06 182.287 21.58 180.367 21.58C178.501 21.58 176.847 22.02 175.407 22.9C173.994 23.78 172.887 24.9933 172.087 26.54C171.314 28.0867 170.927 29.9 170.927 31.98C170.927 34.06 171.327 35.8867 172.127 37.46C172.954 39.0067 174.087 40.22 175.527 41.1C176.967 41.98 178.621 42.42 180.487 42.42C182.007 42.42 183.407 42.1267 184.687 41.54C185.967 40.9267 186.994 40.0733 187.767 38.98C188.541 37.86 188.927 36.54 188.927 35.02V32.74L191.407 34.9H180.367V30.3H194.367V33.3C194.367 35.5933 193.981 37.62 193.207 39.38C192.434 41.14 191.381 42.62 190.047 43.82C188.741 44.9933 187.261 45.8867 185.607 46.5C183.954 47.0867 182.247 47.38 180.487 47.38Z" fill="#4F39F6"/>
<path d="M198.232 46.9V25.14H203.152V29.98L202.752 29.26C203.259 27.6333 204.045 26.5 205.112 25.86C206.205 25.22 207.512 24.9 209.032 24.9H210.312V29.54H208.432C206.939 29.54 205.739 30.0067 204.832 30.94C203.925 31.8467 203.472 33.1267 203.472 34.78V46.9H198.232Z" fill="#4F39F6"/>
<path d="M223.833 47.38C221.699 47.38 219.753 46.8867 217.993 45.9C216.259 44.9133 214.873 43.5667 213.833 41.86C212.819 40.1533 212.313 38.2067 212.313 36.02C212.313 33.8333 212.819 31.8867 213.833 30.18C214.873 28.4733 216.259 27.1267 217.993 26.14C219.726 25.1533 221.673 24.66 223.833 24.66C225.966 24.66 227.899 25.1533 229.633 26.14C231.366 27.1267 232.739 28.4733 233.753 30.18C234.793 31.86 235.313 33.8067 235.313 36.02C235.313 38.2067 234.793 40.1533 233.753 41.86C232.713 43.5667 231.326 44.9133 229.593 45.9C227.859 46.8867 225.939 47.38 223.833 47.38ZM223.833 42.58C225.006 42.58 226.033 42.3 226.913 41.74C227.819 41.18 228.526 40.4067 229.033 39.42C229.566 38.4067 229.833 37.2733 229.833 36.02C229.833 34.74 229.566 33.62 229.033 32.66C228.526 31.6733 227.819 30.9 226.913 30.34C226.033 29.7533 225.006 29.46 223.833 29.46C222.633 29.46 221.579 29.7533 220.673 30.34C219.766 30.9 219.046 31.6733 218.513 32.66C218.006 33.62 217.753 34.74 217.753 36.02C217.753 37.2733 218.006 38.4067 218.513 39.42C219.046 40.4067 219.766 41.18 220.673 41.74C221.579 42.3 222.633 42.58 223.833 42.58Z" fill="#4F39F6"/>
<path d="M244.376 46.9L236.896 25.14H242.416L247.896 41.66L245.976 41.62L251.816 25.14H256.456L262.256 41.62L260.336 41.66L265.816 25.14H271.336L263.856 46.9H259.176L253.256 29.66H255.016L249.016 46.9H244.376Z" fill="#4F39F6"/>
<path d="M281.758 46.9V17.1H287.198V42.1H299.958V46.9H281.758Z" fill="#4F39F6"/>
<path d="M309.637 47.38C308.117 47.38 306.797 47.1267 305.677 46.62C304.557 46.1133 303.69 45.3933 303.077 44.46C302.463 43.5 302.157 42.3933 302.157 41.14C302.157 39.94 302.423 38.8733 302.957 37.94C303.49 36.98 304.317 36.18 305.437 35.54C306.557 34.9 307.97 34.4467 309.677 34.18L316.797 33.02V37.02L310.677 38.06C309.637 38.2467 308.863 38.58 308.357 39.06C307.85 39.54 307.597 40.1667 307.597 40.94C307.597 41.6867 307.877 42.2867 308.437 42.74C309.023 43.1667 309.743 43.38 310.597 43.38C311.69 43.38 312.65 43.1533 313.477 42.7C314.33 42.22 314.983 41.5667 315.437 40.74C315.917 39.9133 316.157 39.0067 316.157 38.02V32.42C316.157 31.4867 315.783 30.7133 315.037 30.1C314.317 29.46 313.357 29.14 312.157 29.14C311.037 29.14 310.037 29.4467 309.157 30.06C308.303 30.6467 307.677 31.4333 307.277 32.42L302.997 30.34C303.423 29.1933 304.09 28.2067 304.997 27.38C305.93 26.5267 307.023 25.86 308.277 25.38C309.53 24.9 310.89 24.66 312.357 24.66C314.143 24.66 315.717 24.9933 317.077 25.66C318.437 26.3 319.49 27.2067 320.237 28.38C321.01 29.5267 321.397 30.8733 321.397 32.42V46.9H316.437V43.18L317.557 43.1C316.997 44.0333 316.33 44.82 315.557 45.46C314.783 46.0733 313.903 46.5533 312.917 46.9C311.93 47.22 310.837 47.38 309.637 47.38Z" fill="#4F39F6"/>
<path d="M338.12 47.38C336.546 47.38 335.093 47.0733 333.76 46.46C332.453 45.82 331.413 44.9133 330.64 43.74L331.16 42.7V46.9H326.24V16.62H331.48V29.46L330.68 28.38C331.426 27.2067 332.44 26.3 333.72 25.66C335 24.9933 336.48 24.66 338.16 24.66C340.213 24.66 342.066 25.1667 343.72 26.18C345.373 27.1933 346.68 28.5533 347.64 30.26C348.626 31.9667 349.12 33.8867 349.12 36.02C349.12 38.1267 348.64 40.0467 347.68 41.78C346.72 43.5133 345.413 44.8867 343.76 45.9C342.106 46.8867 340.226 47.38 338.12 47.38ZM337.52 42.58C338.72 42.58 339.786 42.3 340.72 41.74C341.653 41.18 342.373 40.4067 342.88 39.42C343.413 38.4333 343.68 37.3 343.68 36.02C343.68 34.74 343.413 33.62 342.88 32.66C342.373 31.6733 341.653 30.9 340.72 30.34C339.786 29.7533 338.72 29.46 337.52 29.46C336.373 29.46 335.333 29.74 334.4 30.3C333.493 30.86 332.773 31.6467 332.24 32.66C331.733 33.6467 331.48 34.7667 331.48 36.02C331.48 37.3 331.733 38.4333 332.24 39.42C332.773 40.4067 333.493 41.18 334.4 41.74C335.333 42.3 336.373 42.58 337.52 42.58Z" fill="#4F39F6"/>
<path d="M361.395 47.38C359.075 47.38 357.048 46.8333 355.315 45.74C353.608 44.62 352.435 43.1133 351.795 41.22L355.715 39.34C356.275 40.5667 357.048 41.5267 358.035 42.22C359.048 42.9133 360.168 43.26 361.395 43.26C362.355 43.26 363.115 43.0467 363.675 42.62C364.235 42.1933 364.515 41.6333 364.515 40.94C364.515 40.5133 364.395 40.1667 364.155 39.9C363.941 39.6067 363.635 39.3667 363.235 39.18C362.861 38.9667 362.448 38.7933 361.995 38.66L358.435 37.66C356.595 37.1267 355.195 36.3133 354.235 35.22C353.301 34.1267 352.835 32.8333 352.835 31.34C352.835 30.0067 353.168 28.8467 353.835 27.86C354.528 26.8467 355.475 26.06 356.675 25.5C357.901 24.94 359.301 24.66 360.875 24.66C362.928 24.66 364.741 25.1533 366.315 26.14C367.888 27.1267 369.008 28.5133 369.675 30.3L365.675 32.18C365.301 31.1933 364.675 30.4067 363.795 29.82C362.915 29.2333 361.928 28.94 360.835 28.94C359.955 28.94 359.261 29.14 358.755 29.54C358.248 29.94 357.995 30.46 357.995 31.1C357.995 31.5 358.101 31.8467 358.315 32.14C358.528 32.4333 358.821 32.6733 359.195 32.86C359.595 33.0467 360.048 33.22 360.555 33.38L364.035 34.42C365.821 34.9533 367.195 35.7533 368.155 36.82C369.141 37.8867 369.635 39.1933 369.635 40.74C369.635 42.0467 369.288 43.2067 368.595 44.22C367.901 45.2067 366.941 45.98 365.715 46.54C364.488 47.1 363.048 47.38 361.395 47.38Z" fill="#4F39F6"/>
</svg>
